<svg width="600" height="337" viewBox="0 0 800 600" fill="none" xmlns="http://www.w3.org/2000/svg">
<path d="M263.81 454.743H199.439C194.146 454.743 189.854 450.452 189.854 445.158V443.092C189.854 437.798 194.146 433.507 199.439 433.507H263.81C269.103 433.507 273.395 437.798 273.395 443.092V445.158C273.395 450.452 269.103 454.743 263.81 454.743Z" stroke="#78D2EE" stroke-miterlimit="10"></path>
<path d="M229.14 32.0508H220.979V73.7491H229.14V32.0508Z" fill="#a7def8"></path>
<path d="M66.2997 94.8438H206.557C212.422 94.8438 217.176 99.5976 217.176 105.462V105.462C217.176 111.326 212.422 116.08 206.557 116.08H66.2997C60.4355 116.08 55.6816 111.326 55.6816 105.462V105.462C55.6816 99.5976 60.4355 94.8438 66.2997 94.8438Z" stroke="#78D2EE" stroke-width="1.26201" stroke-miterlimit="10"></path>
<path d="M235.186 63.4604V118.396C235.186 126.295 228.783 132.698 220.884 132.698H202.206C194.308 132.698 187.904 126.295 187.904 118.396V63.4604C187.904 55.5615 194.308 49.1582 202.206 49.1582H220.884C228.783 49.1582 235.186 55.5615 235.186 63.4604Z" stroke="#78D2EE" stroke-width="1.35439" stroke-miterlimit="10"></path>
<path d="M480.335 394.688V386.527L64.6117 386.527V394.688L480.335 394.688Z" fill="#a7def8"></path>
<path d="M90.5338 133.738H82.373V204.203H90.5338V133.738Z" fill="#EBEBEB"></path>
<path d="M371.496 367.714H367.614V412.784H371.496V367.714Z" fill="#a7def8"></path>
<path d="M380.17 387.529H376.288V432.599H380.17V387.529Z" fill="#a7def8"></path>
<path d="M757.045 509.397V507.456H711.975V509.397H757.045Z" fill="#29aee4"></path>
<path d="M737.23 516.129V514.188H692.16V516.129H737.23Z" fill="#29aee4"></path>
<path d="M475.3 390.065H105.221C94.8557 390.065 86.4531 381.662 86.4531 371.297V124.228C86.4531 113.863 94.8557 105.46 105.221 105.46H475.3C485.665 105.46 494.068 113.863 494.068 124.228V371.297C494.068 381.662 485.665 390.065 475.3 390.065Z" fill="#29aee4"></path>
<path d="M332.149 339.612H394.155" stroke="#FFE458" stroke-width="2" stroke-miterlimit="10"></path>
<path d="M332.149 350.694H394.155" stroke="#FFE458" stroke-width="2" stroke-miterlimit="10"></path>
<path d="M305.539 328.53H125.503C123.19 328.53 121.315 326.655 121.315 324.342V266.188C121.315 263.875 123.19 262 125.503 262H305.539C307.852 262 309.727 263.875 309.727 266.188V324.342C309.727 326.655 307.852 328.53 305.539 328.53Z" fill="#a7def8"></path>
<path d="M445.284 328.53H336.337C334.024 328.53 332.149 326.655 332.149 324.342V266.188C332.149 263.875 334.024 262 336.337 262H445.284C447.597 262 449.472 263.875 449.472 266.188V324.342C449.472 326.655 447.597 328.53 445.284 328.53Z" fill="#29aee4"></path>
<path d="M445.284 223.356H125.503C123.19 223.356 121.315 221.481 121.315 219.168V158.506C121.315 156.193 123.19 154.318 125.503 154.318H445.284C447.597 154.318 449.472 156.193 449.472 158.506V219.168C449.472 221.481 447.597 223.356 445.284 223.356Z" fill="#a7def8"></path>
<path d="M445.284 247.223H125.503C123.19 247.223 121.315 245.348 121.315 243.035V243.035C121.315 240.722 123.19 238.847 125.503 238.847H445.284C447.597 238.847 449.472 240.722 449.472 243.035V243.035C449.472 245.348 447.597 247.223 445.284 247.223Z" fill="#29aee4"></path>
<path d="M125.258 130.551C127.435 130.551 129.2 128.786 129.2 126.609C129.2 124.432 127.435 122.667 125.258 122.667C123.081 122.667 121.315 124.432 121.315 126.609C121.315 128.786 123.081 130.551 125.258 130.551Z" fill="#a7def8"></path>
<path d="M139.131 130.551C141.308 130.551 143.073 128.786 143.073 126.609C143.073 124.432 141.308 122.667 139.131 122.667C136.954 122.667 135.188 124.432 135.188 126.609C135.188 128.786 136.954 130.551 139.131 130.551Z" fill="#a7def8"></path>
<path d="M153.005 130.551C155.182 130.551 156.947 128.786 156.947 126.609C156.947 124.432 155.182 122.667 153.005 122.667C150.828 122.667 149.062 124.432 149.062 126.609C149.062 128.786 150.828 130.551 153.005 130.551Z" fill="#a7def8"></path>
<path d="M121.315 339.612H261.755" stroke="#FFE458" stroke-width="2" stroke-miterlimit="10"></path>
<path d="M121.315 350.694H261.755" stroke="#FFE458" stroke-width="2" stroke-miterlimit="10"></path>
<path d="M121.315 361.777H205.904" stroke="#FFE458" stroke-width="2" stroke-miterlimit="10"></path>
<path d="M385.162 125.012H354.919V128.206H385.162V125.012Z" fill="#29aee4"></path>
<path d="M421.054 125.012H390.811V128.206H421.054V125.012Z" fill="#29aee4"></path>
<path d="M456.946 125.012H426.703V128.206H456.946V125.012Z" fill="#29aee4"></path>
<path d="M138.754 499.869C146.543 499.869 152.88 506.206 152.88 513.995C152.88 521.784 146.543 528.121 138.754 528.121C130.964 528.121 124.627 521.784 124.627 513.995C124.627 506.206 130.964 499.869 138.754 499.869ZM138.754 494.37C127.915 494.37 119.129 503.156 119.129 513.995C119.129 524.833 127.915 533.62 138.754 533.62C149.592 533.62 158.378 524.833 158.378 513.995C158.378 503.156 149.592 494.37 138.754 494.37Z" fill="#29aee4"></path>
<path d="M141.838 491.496H135.671V496.76H141.838V491.496Z" fill="#29aee4"></path>
<path d="M141.838 530.987H135.671V536.252H141.838V530.987Z" fill="#29aee4"></path>
<path d="M152.397 495.87L148.675 499.592L153.036 503.953L156.758 500.23L152.397 495.87Z" fill="#29aee4"></path>
<path d="M124.473 523.795L120.75 527.517L125.111 531.878L128.833 528.156L124.473 523.795Z" fill="#29aee4"></path>
<path d="M161.132 510.79H155.867V516.957H161.132V510.79Z" fill="#29aee4"></path>
<path d="M121.64 510.79H116.376V516.957H121.64V510.79Z" fill="#29aee4"></path>
<path d="M153.036 523.795L148.675 528.156L152.397 531.878L156.758 527.517L153.036 523.795Z" fill="#29aee4"></path>
<path d="M125.111 495.87L120.75 500.23L124.473 503.953L128.833 499.592L125.111 495.87Z" fill="#29aee4"></path>
<path d="M106.185 481.627C111.788 481.627 116.346 486.186 116.346 491.789C116.346 497.392 111.788 501.95 106.185 501.95C100.582 501.95 96.0236 497.392 96.0236 491.789C96.0236 486.186 100.582 481.627 106.185 481.627ZM106.185 477.672C98.3887 477.672 92.0684 483.992 92.0684 491.789C92.0684 499.585 98.3887 505.905 106.185 505.905C113.981 505.905 120.302 499.585 120.302 491.789C120.302 483.992 113.981 477.672 106.185 477.672Z" fill="#29aee4"></path>
<path d="M109.228 474.901H103.144V480.094H109.228V474.901Z" fill="#29aee4"></path>
<path d="M109.228 503.309H103.144V508.502H109.228V503.309Z" fill="#29aee4"></path>
<path d="M115.914 477.671L112.241 481.343L116.543 485.645L120.216 481.973L115.914 477.671Z" fill="#29aee4"></path>
<path d="M95.8268 497.758L92.1543 501.43L96.4564 505.732L100.129 502.06L95.8268 497.758Z" fill="#29aee4"></path>
<path d="M122.986 488.659H117.792V494.743H122.986V488.659Z" fill="#29aee4"></path>
<path d="M94.5784 488.659H89.3848V494.743H94.5784V488.659Z" fill="#29aee4"></path>
<path d="M116.543 497.758L112.241 502.06L115.914 505.732L120.216 501.43L116.543 497.758Z" fill="#29aee4"></path>
<path d="M96.4564 477.671L92.1543 481.973L95.8268 485.645L100.129 481.343L96.4564 477.671Z" fill="#29aee4"></path>
<path d="M326.362 55.3288H311.478C310.511 55.3288 309.728 54.5453 309.728 53.5788V53.5788C309.728 48.9118 313.511 45.1284 318.178 45.1284H319.662C324.329 45.1284 328.113 48.9118 328.113 53.5788V53.5788C328.113 54.5453 327.329 55.3288 326.362 55.3288Z" fill="#29aee4"></path>
<path d="M318.92 42.876C321.665 42.876 323.891 40.6508 323.891 37.9058C323.891 35.1608 321.665 32.9355 318.92 32.9355C316.175 32.9355 313.95 35.1608 313.95 37.9058C313.95 40.6508 316.175 42.876 318.92 42.876Z" fill="#29aee4"></path>
<path d="M354.448 55.3288H339.564C338.597 55.3288 337.813 54.5453 337.813 53.5788V53.5788C337.813 48.9118 341.597 45.1284 346.264 45.1284H347.748C352.415 45.1284 356.198 48.9118 356.198 53.5788V53.5788C356.198 54.5453 355.415 55.3288 354.448 55.3288Z" fill="#29aee4"></path>
<path d="M347.006 42.876C349.751 42.876 351.977 40.6508 351.977 37.9058C351.977 35.1608 349.751 32.9355 347.006 32.9355C344.261 32.9355 342.036 35.1608 342.036 37.9058C342.036 40.6508 344.261 42.876 347.006 42.876Z" fill="#29aee4"></path>
<path d="M382.534 55.3288H367.65C366.683 55.3288 365.899 54.5453 365.899 53.5788V53.5788C365.899 48.9118 369.683 45.1284 374.35 45.1284H375.834C380.501 45.1284 384.284 48.9118 384.284 53.5788V53.5788C384.284 54.5453 383.501 55.3288 382.534 55.3288Z" fill="#29aee4"></path>
<path d="M375.092 42.876C377.837 42.876 380.063 40.6508 380.063 37.9058C380.063 35.1608 377.837 32.9355 375.092 32.9355C372.347 32.9355 370.122 35.1608 370.122 37.9058C370.122 40.6508 372.347 42.876 375.092 42.876Z" fill="#29aee4"></path>
<path d="M479.299 310.78L475.358 289.238" stroke="#005B9D" stroke-width="2" stroke-miterlimit="10" stroke-linecap="round"></path>
<path d="M141.838 513.826H222.194C229.95 513.826 236.236 507.539 236.236 499.784V335.365C236.236 327.61 242.523 321.323 250.279 321.323H307.71C315.465 321.323 321.752 315.036 321.752 307.281V208.488" stroke="#FFE458" stroke-width="2" stroke-miterlimit="10" stroke-dasharray="3 3"></path>
<path d="M139.297 517.883C141.67 517.883 143.594 515.959 143.594 513.586C143.594 511.213 141.67 509.289 139.297 509.289C136.924 509.289 135 511.213 135 513.586C135 515.959 136.924 517.883 139.297 517.883Z" fill="#29aee4"></path>
<path d="M309.578 325.834C311.951 325.834 313.875 323.91 313.875 321.537C313.875 319.164 311.951 317.24 309.578 317.24C307.205 317.24 305.281 319.164 305.281 321.537C305.281 323.91 307.205 325.834 309.578 325.834Z" fill="#29aee4"></path>
<path d="M309.578 333.403C316.131 333.403 321.444 328.09 321.444 321.537C321.444 314.983 316.131 309.671 309.578 309.671C303.025 309.671 297.712 314.983 297.712 321.537C297.712 328.09 303.025 333.403 309.578 333.403Z" stroke="#FFE458" stroke-miterlimit="10"></path>
<path d="M413.019 536.294V566.931H578.145" stroke="#005B9D" stroke-width="2" stroke-miterlimit="10" stroke-dasharray="2 2"></path>
<path d="M74.2383 390.607H196.139" stroke="#FFE458" stroke-miterlimit="10" stroke-linecap="round"></path>
<path d="M245.378 466.513V372.861" stroke="#78D2EE" stroke-miterlimit="10"></path>
<path d="M302.438 65.9995H391.799" stroke="#FFE458" stroke-width="2" stroke-miterlimit="10" stroke-dasharray="3 3"></path>
<path d="M321.751 213.666C324.124 213.666 326.048 211.742 326.048 209.369C326.048 206.996 324.124 205.072 321.751 205.072C319.378 205.072 317.454 206.996 317.454 209.369C317.454 211.742 319.378 213.666 321.751 213.666Z" fill="#29aee4"></path>
<path d="M724.603 430.258V365.888C724.603 360.594 728.894 356.303 734.188 356.303H736.254C741.547 356.303 745.839 360.594 745.839 365.888V430.258C745.839 435.552 741.547 439.843 736.254 439.843H734.188C728.894 439.843 724.603 435.552 724.603 430.258Z" stroke="#FFE458" stroke-width="2" stroke-miterlimit="10"></path>
<path d="M709.602 313.717H735.221V399.596" stroke="#005B9D" stroke-width="2" stroke-miterlimit="10" stroke-dasharray="2 2"></path>
<path d="M714.172 309.146H705.03V318.288H714.172V309.146Z" stroke="#FFE458" stroke-width="2" stroke-miterlimit="10"></path>
<path d="M136.782 439.554V448.696H145.924V439.554H136.782Z" stroke="#78D2EE" stroke-miterlimit="10"></path>
<path d="M320.19 492.189V501.331H329.333V492.189H320.19Z" stroke="#78D2EE" stroke-miterlimit="10"></path>
<path d="M282.599 234.6H162.567C152.742 234.6 144.776 226.635 144.776 216.809V163.276C144.776 153.451 152.742 145.486 162.567 145.486H282.599C292.425 145.486 300.39 153.451 300.39 163.276V216.809C300.39 226.635 292.425 234.6 282.599 234.6Z" fill="#29aee4"></path>
<path d="M286.018 142.948C296.403 142.948 304.821 151.367 304.821 161.752V218.334C304.821 228.719 296.403 237.137 286.018 237.137" stroke="#FFE458" stroke-width="2" stroke-miterlimit="10"></path>
<path d="M221.743 178.8H208.676C207.828 178.8 207.14 178.112 207.14 177.264V177.264C207.14 173.167 210.461 169.845 214.558 169.845H215.861C219.958 169.845 223.28 173.167 223.28 177.264V177.264C223.28 178.112 222.592 178.8 221.743 178.8Z" fill="#29aee4"></path>
<path d="M215.21 167.868C217.62 167.868 219.573 165.914 219.573 163.504C219.573 161.095 217.62 159.141 215.21 159.141C212.8 159.141 210.847 161.095 210.847 163.504C210.847 165.914 212.8 167.868 215.21 167.868Z" fill="#29aee4"></path>
<path d="M246.399 178.8H233.332C232.484 178.8 231.796 178.112 231.796 177.264V177.264C231.796 173.167 235.117 169.845 239.214 169.845H240.517C244.615 169.845 247.936 173.167 247.936 177.264V177.264C247.936 178.112 247.248 178.8 246.399 178.8Z" fill="#29aee4"></path>
<path d="M239.866 167.868C242.276 167.868 244.23 165.914 244.23 163.504C244.23 161.095 242.276 159.141 239.866 159.141C237.456 159.141 235.503 161.095 235.503 163.504C235.503 165.914 237.456 167.868 239.866 167.868Z" fill="#29aee4"></path>
<path d="M271.055 178.8H257.988C257.139 178.8 256.451 178.112 256.451 177.264V177.264C256.451 173.167 259.773 169.845 263.87 169.845H265.173C269.27 169.845 272.591 173.167 272.591 177.264V177.264C272.591 178.112 271.903 178.8 271.055 178.8Z" fill="#29aee4"></path>
<path d="M264.522 167.868C266.931 167.868 268.885 165.914 268.885 163.504C268.885 161.095 266.931 159.141 264.522 159.141C262.112 159.141 260.158 161.095 260.158 163.504C260.158 165.914 262.112 167.868 264.522 167.868Z" fill="#29aee4"></path>
<path d="M210.846 190.042H268.884" stroke="#75E0E6" stroke-miterlimit="10"></path>
<path d="M210.846 197.972H256.451" stroke="#75E0E6" stroke-miterlimit="10"></path>
<path d="M210.846 205.9H268.884" stroke="#75E0E6" stroke-miterlimit="10"></path>
<path d="M210.846 213.829H268.884" stroke="#75E0E6" stroke-miterlimit="10"></path>
<path d="M186.498 218.515H164.844C160.483 218.515 156.947 214.98 156.947 210.619V169.541C156.947 165.18 160.483 161.645 164.844 161.645H186.498C190.859 161.645 194.395 165.18 194.395 169.541V210.619C194.395 214.98 190.859 218.515 186.498 218.515Z" fill="#a7def8"></path>
<path d="M157.484 217.652C167.528 217.652 175.671 209.51 175.671 199.465C175.671 189.421 167.528 181.278 157.484 181.278C147.439 181.278 139.297 189.421 139.297 199.465C139.297 209.51 147.439 217.652 157.484 217.652Z" stroke="#190065" stroke-width="1.3912" stroke-miterlimit="10"></path>
<path d="M157.484 203.762C159.858 203.762 161.781 201.839 161.781 199.465C161.781 197.092 159.858 195.168 157.484 195.168C155.111 195.168 153.188 197.092 153.188 199.465C153.188 201.839 155.111 203.762 157.484 203.762Z" fill="#190065"></path>
<path d="M55.5093 295.052C64.9032 295.052 72.5185 287.437 72.5185 278.043C72.5185 268.649 64.9032 261.034 55.5093 261.034C46.1153 261.034 38.5 268.649 38.5 278.043C38.5 287.437 46.1153 295.052 55.5093 295.052Z" stroke="#75E0E6" stroke-miterlimit="10"></path>
<path d="M55.5088 278.043H136.785C148.216 278.043 157.483 268.776 157.483 257.344V199.465" stroke="#FFE458" stroke-width="2" stroke-miterlimit="10"></path>
<path d="M55.5089 283.163C58.3367 283.163 60.6291 280.871 60.6291 278.043C60.6291 275.215 58.3367 272.923 55.5089 272.923C52.6811 272.923 50.3887 275.215 50.3887 278.043C50.3887 280.871 52.6811 283.163 55.5089 283.163Z" fill="#29aee4"></path>
<path d="M468.888 318.288C468.888 318.288 458.533 299.48 465.833 300.523C473.134 301.566 487.907 320.917 487.907 320.917L468.888 318.288Z" fill="#FFAE00"></path>
<path d="M603.705 198.157C603.705 198.157 604.506 89.0532 599.291 77.9293C594.077 66.8053 573.462 52.9004 551.441 52.9004C529.419 52.9004 508.805 66.8053 503.59 77.9293C498.376 89.0532 496.981 197.109 496.981 197.109L603.705 198.157Z" fill="#190065"></path>
<path d="M651.449 252.985V546.92H451.432V252.985C451.432 223.476 470.875 199.595 497.05 199.595L513.289 188.231L528.981 177.248H575.614L584.938 183.665L608.335 199.768C634.517 199.768 651.449 223.476 651.449 252.985Z" fill="#E6E7E8"></path>
<path d="M526.121 177.248H578.522C584.73 182.213 584.222 232.099 568.084 265.257C565.124 271.338 560.468 276.567 555.43 280.896C520.476 237.464 519.513 182.531 526.121 177.248Z" fill="#29aee4"></path>
<path d="M570.563 154.59V205.208C570.563 219.545 562.23 231.165 551.94 231.165H550.942C540.652 231.165 532.319 219.545 532.319 205.208V154.59H570.563Z" fill="#FF9100"></path>
<path d="M526.12 177.248L477.742 211.709L514.191 217.057L488.345 231.161L530.369 296.041C530.369 296.041 577.704 303.405 569.637 296.041C520.818 251.471 518.712 183.174 526.12 177.248Z" fill="#F1F2F2"></path>
<path d="M578.524 177.248L626.901 211.709L590.452 217.057L616.298 231.161L574.274 296.041H530.369C530.369 296.041 558.363 285.234 568.084 265.259C584.218 232.101 584.727 182.211 578.524 177.248Z" fill="#F1F2F2"></path>
<path d="M574.274 296.041H530.369V546.922H574.274V296.041Z" fill="#F1F2F2"></path>
<path d="M474.564 512.576H445.405C434.134 512.576 424.997 503.439 424.997 492.168V423.773H494.973V492.168C494.973 503.439 485.836 512.576 474.564 512.576Z" stroke="#005B9D" stroke-width="2" stroke-miterlimit="10" stroke-linecap="round"></path>
<path d="M500.693 405.965H419.276V431.063H500.693V405.965Z" fill="#29aee4"></path>
<path d="M657.471 512.576H628.312C617.04 512.576 607.903 503.439 607.903 492.168V423.773H677.879V492.168C677.879 503.439 668.742 512.576 657.471 512.576Z" stroke="#005B9D" stroke-width="2" stroke-miterlimit="10" stroke-linecap="round"></path>
<path d="M683.599 405.965H602.183V431.063H683.599V405.965Z" fill="#29aee4"></path>
<path d="M562.287 313.918H542.356V316.699H562.287V313.918Z" fill="#29aee4"></path>
<path d="M562.287 362.084H542.356V364.865H562.287V362.084Z" fill="#29aee4"></path>
<path d="M562.287 410.252H542.356V413.033H562.287V410.252Z" fill="#29aee4"></path>
<path d="M562.287 458.42H542.356V461.201H562.287V458.42Z" fill="#29aee4"></path>
<path d="M562.287 506.586H542.356V509.367H562.287V506.586Z" fill="#29aee4"></path>
<path d="M577.315 219.421C577.315 219.421 577.306 219.439 577.287 219.457C570.153 227.218 561.993 232.255 552.326 233.272C552.326 233.272 552.335 233.236 552.353 233.172L563.352 188.959L574.274 175.334C586.827 174.409 577.315 219.421 577.315 219.421Z" fill="#29aee4"></path>
<path d="M576.093 208.355C576.093 208.355 569.043 206.483 569.025 206.501C561.89 214.262 559.099 220.846 559.117 220.782C559.762 218.776 566.156 189.438 567.055 190.119C567.981 190.818 576.093 208.355 576.093 208.355Z" fill="#29aee4"></path>
<path d="M524.874 217.278C524.874 217.278 524.883 217.296 524.901 217.314C532.041 225.558 540.234 233.517 549.862 231.129C549.862 231.129 549.853 231.093 549.835 231.03L538.837 186.816L527.914 173.192C515.361 172.266 524.874 217.278 524.874 217.278Z" fill="#29aee4"></path>
<path d="M526.096 206.214C526.096 206.214 533.146 204.342 533.164 204.36C540.298 212.121 543.089 218.705 543.071 218.642C542.427 216.636 536.033 187.298 535.134 187.978C534.208 188.677 526.096 206.214 526.096 206.214Z" fill="#29aee4"></path>
<path d="M591.674 217.731L590.448 217.06L591.583 216.896L591.674 217.731Z" fill="#DED8D0"></path>
<path d="M485.924 303.779L481.983 282.237" stroke="#005B9D" stroke-width="2" stroke-miterlimit="10" stroke-linecap="round"></path>
<path d="M456.804 221.055C436.375 246.981 421.908 359.872 438.233 377.571C454.032 394.7 572.375 379.855 572.375 379.855" stroke="#005B9D" stroke-width="2" stroke-miterlimit="10" stroke-linecap="round"></path>
<path d="M456.804 221.055C436.375 246.981 421.908 359.872 438.233 377.571C454.032 394.7 572.375 379.855 572.375 379.855" stroke="black" stroke-opacity="0.48" stroke-width="2" stroke-miterlimit="10" stroke-linecap="round"></path>
<path d="M643.4 220.783C682.079 260.499 668.592 360.648 651.426 377.571C634.832 393.931 494.532 369.131 494.532 369.131L494.947 313.831L617.272 331.123L623.948 291.452" stroke="#005B9D" stroke-width="2" stroke-miterlimit="10" stroke-linecap="round"></path>
<path d="M494.947 313.832L465.409 303.836C465.409 303.836 436.895 304.18 433.492 307.114C426.518 313.127 433.987 331.93 440.051 337.026C442.648 339.208 462.814 345.114 462.814 345.114L494.112 348.969L494.947 313.832Z" fill="#FFAE00"></path>
<path d="M576.318 324.807L631.547 303.422C631.547 303.422 653.689 305.603 656.058 306.911C659.01 308.541 655.833 323.542 652.955 326.597C647.593 332.287 643.41 332.988 638.976 333.691C638.064 333.835 635.299 333.347 635.299 333.347L576.318 324.807Z" fill="#FFAE00"></path>
<path d="M582.829 142.399L586.289 114.311C590.875 114.875 594.134 119.051 593.569 123.636L592.154 135.119C591.59 139.705 587.415 142.964 582.829 142.399Z" fill="#FF9100"></path>
<path d="M520.054 142.399H520.054L516.593 114.311C512.008 114.875 508.749 119.051 509.314 123.636L510.728 135.119C511.293 139.705 515.468 142.964 520.054 142.399Z" fill="#FF9100"></path>
<path d="M578.703 80.2285H524.179C516.745 80.2285 510.709 86.2555 510.709 93.6985L518.201 146.924C524.914 172.427 545.225 175.32 552.565 175.32C558.948 175.32 580.768 173.178 586.854 146.924C590.072 133.044 592.173 93.6985 592.173 93.6985C592.173 86.2555 586.137 80.2285 578.703 80.2285Z" fill="#FFAE00"></path>
<path d="M518.422 116.393C518.422 116.393 521.558 114.245 524.3 113.858C529.984 113.055 535.065 114.205 539.479 113.858" stroke="#190065" stroke-width="3" stroke-miterlimit="10" stroke-linecap="round"></path>
<path d="M584.46 116.393C584.46 116.393 581.323 114.245 578.582 113.858C572.897 113.055 567.817 114.205 563.402 113.858" stroke="#190065" stroke-width="3" stroke-miterlimit="10" stroke-linecap="round"></path>
<path d="M543.04 156.879C548.862 159.545 554.482 159.775 559.842 156.879" stroke="#190065" stroke-width="2" stroke-miterlimit="10" stroke-linecap="round"></path>
<path d="M590.448 322.71C590.448 322.71 594.828 310.364 614.875 305.476C621.408 303.883 624.354 308.349 624.354 308.349L590.448 322.71Z" fill="#FFAE00"></path>
<path d="M475.514 311.289C475.514 311.289 465.159 292.481 472.459 293.524C479.76 294.567 494.533 313.918 494.533 313.918L475.514 311.289Z" fill="#FFAE00"></path>
<path d="M559.754 145.715C559.499 144.478 557.539 142.957 556.274 144.096C553.949 146.191 549.267 147.112 546.608 144.096C545.482 142.82 543.383 144.478 543.128 145.715C542.874 146.952 544.019 148.233 545.686 148.576C546.318 148.706 547.127 148.897 547.9 149.016C548.588 149.726 549.907 150.213 551.441 150.213C552.975 150.213 554.294 149.726 554.982 149.016C555.755 148.897 556.563 148.706 557.196 148.576C558.863 148.233 560.008 146.952 559.754 145.715Z" fill="#FF9100"></path>
<path d="M546.063 144.392C546.063 144.392 549.556 120.652 551.4 120.652C553.243 120.652 556.989 144.803 556.989 144.803L550.992 148.499L546.063 144.392Z" fill="#FF9100"></path>
<path d="M539.294 139.853H517.626C514.97 139.853 512.816 137.699 512.816 135.043V119.121C512.816 116.465 514.97 114.312 517.626 114.312H542.962C545.619 114.312 547.772 116.465 547.772 119.121V131.374C547.772 136.057 543.976 139.853 539.294 139.853Z" stroke="#FFE458" stroke-width="0.897053" stroke-miterlimit="10" stroke-linecap="round"></path>
<path d="M585.255 139.853H563.588C558.905 139.853 555.109 136.057 555.109 131.374V119.121C555.109 116.465 557.263 114.312 559.919 114.312H585.255C587.912 114.312 590.065 116.465 590.065 119.121V135.043C590.065 137.699 587.912 139.853 585.255 139.853Z" stroke="#FFE458" stroke-width="0.897053" stroke-miterlimit="10" stroke-linecap="round"></path>
<path opacity="0.47" d="M585.256 114.311H563.757V113.762H540.035V114.311H517.626C514.97 114.311 512.816 116.465 512.816 119.121V135.043C512.816 137.699 514.97 139.853 517.626 139.853H539.294C543.976 139.853 547.772 136.057 547.772 131.374V130.751C547.772 128.725 549.415 127.082 551.441 127.082C553.467 127.082 555.109 128.725 555.109 130.751V131.374C555.109 136.057 558.905 139.853 563.588 139.853H585.255C587.912 139.853 590.065 137.699 590.065 135.043V119.121C590.065 116.465 587.912 114.311 585.256 114.311Z" fill="#29aee4"></path>
<path opacity="0.47" d="M512.848 119.663H508.507V130.401H512.848V119.663Z" fill="#29aee4"></path>
<path opacity="0.47" d="M594.375 119.663H590.034V130.401H594.375V119.663Z" fill="#29aee4"></path>
<path d="M510.709 78.6688L504.131 109.307H527.365L534.584 96.5412L537.322 109.307H596.812L592.205 76.6263L559.842 66.1582L510.709 78.6688Z" fill="#190065"></path>
<path d="M760.218 190.954H662.756C660.325 190.954 658.354 188.983 658.354 186.551V63.5139C658.354 61.0824 660.325 59.1113 662.756 59.1113H760.218C762.649 59.1113 764.62 61.0824 764.62 63.5139V186.551C764.62 188.983 762.649 190.954 760.218 190.954Z" fill="#29aee4"></path>
<path d="M669.034 123.962H727.24" stroke="#FFE458" stroke-width="2" stroke-miterlimit="10" stroke-linecap="round"></path>
<path d="M669.034 130.679H753.938" stroke="#FFE458" stroke-width="2" stroke-miterlimit="10" stroke-linecap="round"></path>
<path d="M673.716 169.462H699.028" stroke="#FFE458" stroke-width="2" stroke-miterlimit="10" stroke-linecap="round"></path>
<path d="M673.716 176.05H699.028" stroke="#FFE458" stroke-width="2" stroke-miterlimit="10" stroke-linecap="round"></path>
<path d="M709.01 169.462H728.825" stroke="#FFE458" stroke-width="2" stroke-miterlimit="10" stroke-linecap="round"></path>
<path d="M709.01 176.05H728.825" stroke="#FFE458" stroke-width="2" stroke-miterlimit="10" stroke-linecap="round"></path>
<path d="M734.123 169.462H753.938" stroke="#FFE458" stroke-width="2" stroke-miterlimit="10" stroke-linecap="round"></path>
<path d="M734.123 176.05H753.938" stroke="#FFE458" stroke-width="2" stroke-miterlimit="10" stroke-linecap="round"></path>
<path d="M699.484 161.549H673.26C670.926 161.549 669.034 159.657 669.034 157.323V144.687C669.034 142.353 670.926 140.461 673.26 140.461H699.484C701.818 140.461 703.71 142.353 703.71 144.687V157.323C703.71 159.657 701.818 161.549 699.484 161.549Z" fill="#29aee4"></path>
<path d="M749.712 161.549H738.349C736.015 161.549 734.123 159.657 734.123 157.323V144.687C734.123 142.353 736.015 140.461 738.349 140.461H749.712C752.046 140.461 753.938 142.353 753.938 144.687V157.323C753.938 159.657 752.046 161.549 749.712 161.549Z" fill="#29aee4"></path>
<path d="M724.599 161.549H713.236C710.902 161.549 709.01 159.657 709.01 157.323V144.687C709.01 142.353 710.902 140.461 713.236 140.461H724.599C726.933 140.461 728.825 142.353 728.825 144.687V157.323C728.825 159.657 726.933 161.549 724.599 161.549Z" fill="#29aee4"></path>
<path d="M711.486 109.306C722.093 109.306 730.691 100.708 730.691 90.1014C730.691 79.4948 722.093 70.8965 711.486 70.8965C700.88 70.8965 692.281 79.4948 692.281 90.1014C692.281 100.708 700.88 109.306 711.486 109.306Z" fill="#a7def8"></path>
<path d="M717.669 99.4041H705.303C704.5 99.4041 703.849 98.7531 703.849 97.95V97.95C703.849 94.0725 706.992 90.9292 710.87 90.9292H712.103C715.98 90.9292 719.124 94.0725 719.124 97.95V97.95C719.124 98.7531 718.473 99.4041 717.669 99.4041Z" fill="#29aee4"></path>
<path d="M711.486 89.0577C713.767 89.0577 715.615 87.2089 715.615 84.9283C715.615 82.6476 713.767 80.7988 711.486 80.7988C709.205 80.7988 707.356 82.6476 707.356 84.9283C707.356 87.2089 709.205 89.0577 711.486 89.0577Z" fill="#29aee4"></path>
<path opacity="0.47" d="M580.768 121.287L655.19 56.6211C656.035 55.8868 657.117 55.4824 658.236 55.4824H763.9C766.465 55.4824 768.545 57.562 768.545 60.1273V189.937C768.545 192.502 766.465 194.582 763.9 194.582H658.228C657.113 194.582 656.036 194.181 655.192 193.452L580.768 129.185V121.287Z" fill="#29aee4"></path>
</svg>