<svg width="600" height="337" viewBox="0 0 800 600" fill="none" xmlns="http://www.w3.org/2000/svg">
<path opacity="0.05" d="M28.8132 42.1416C171.224 42.1416 286.671 157.588 286.671 299.999C286.671 442.41 171.224 557.856 28.8132 557.856" fill="#29aee4"></path>
<path opacity="0.05" d="M28.8132 92.502C143.41 92.502 236.309 185.401 236.309 299.997C236.309 414.594 143.41 507.493 28.8132 507.493" fill="#29aee4"></path>
<path d="M180.699 100.435H118.221V362.835H180.699V100.435Z" fill="#29aee4"></path>
<path opacity="0.17" d="M247.462 100.435H191.466V146.377H247.462V100.435Z" fill="#29aee4"></path>
<path opacity="0.17" d="M247.462 149.625H191.466V153.807H247.462V149.625Z" fill="#29aee4"></path>
<path opacity="0.17" d="M316.683 100.435H260.686V146.377H316.683V100.435Z" fill="#29aee4"></path>
<path opacity="0.17" d="M316.683 149.625H260.686V153.807H316.683V149.625Z" fill="#29aee4"></path>
<path opacity="0.17" d="M385.901 100.435H329.905V146.377H385.901V100.435Z" fill="#29aee4"></path>
<path opacity="0.17" d="M385.901 149.625H329.905V153.807H385.901V149.625Z" fill="#29aee4"></path>
<path opacity="0.17" d="M455.12 100.435H399.123V146.377H455.12V100.435Z" fill="#29aee4"></path>
<path opacity="0.17" d="M455.12 149.625H399.123V153.807H455.12V149.625Z" fill="#29aee4"></path>
<path opacity="0.36" d="M247.462 165.563H191.466V211.506H247.462V165.563Z" fill="#29aee4"></path>
<path opacity="0.17" d="M247.462 214.758H191.466V218.94H247.462V214.758Z" fill="#29aee4"></path>
<path opacity="0.36" d="M316.683 165.563H260.686V211.506H316.683V165.563Z" fill="#29aee4"></path>
<path opacity="0.17" d="M316.683 214.758H260.686V218.94H316.683V214.758Z" fill="#29aee4"></path>
<path opacity="0.36" d="M385.901 165.563H329.905V211.506H385.901V165.563Z" fill="#29aee4"></path>
<path opacity="0.17" d="M385.901 214.758H329.905V218.94H385.901V214.758Z" fill="#29aee4"></path>
<path d="M455.12 165.563H399.123V211.506H455.12V165.563Z" fill="#29aee4"></path>
<path opacity="0.83" d="M455.12 214.758H399.123V218.94H455.12V214.758Z" fill="#29aee4"></path>
<path opacity="0.17" d="M247.462 230.692H191.466V276.635H247.462V230.692Z" fill="#29aee4"></path>
<path opacity="0.17" d="M247.462 279.887H191.466V284.069H247.462V279.887Z" fill="#29aee4"></path>
<path opacity="0.17" d="M316.683 230.692H260.686V276.635H316.683V230.692Z" fill="#29aee4"></path>
<path opacity="0.17" d="M316.683 279.887H260.686V284.069H316.683V279.887Z" fill="#29aee4"></path>
<path opacity="0.17" d="M385.901 230.692H329.905V276.635H385.901V230.692Z" fill="#29aee4"></path>
<path opacity="0.17" d="M385.901 279.887H329.905V284.069H385.901V279.887Z" fill="#29aee4"></path>
<path opacity="0.17" d="M455.12 230.692H399.123V276.635H455.12V230.692Z" fill="#29aee4"></path>
<path opacity="0.17" d="M455.12 279.887H399.123V284.069H455.12V279.887Z" fill="#29aee4"></path>
<path opacity="0.17" d="M247.462 295.823H191.466V341.766H247.462V295.823Z" fill="#29aee4"></path>
<path opacity="0.17" d="M247.462 345.018H191.466V349.2H247.462V345.018Z" fill="#29aee4"></path>
<path opacity="0.17" d="M316.683 295.823H260.686V341.766H316.683V295.823Z" fill="#29aee4"></path>
<path opacity="0.17" d="M316.683 345.018H260.686V349.2H316.683V345.018Z" fill="#29aee4"></path>
<path opacity="0.17" d="M385.901 295.823H329.905V341.766H385.901V295.823Z" fill="#29aee4"></path>
<path opacity="0.17" d="M385.901 345.018H329.905V349.2H385.901V345.018Z" fill="#29aee4"></path>
<path opacity="0.17" d="M455.12 295.823H399.123V341.766H455.12V295.823Z" fill="#29aee4"></path>
<path opacity="0.17" d="M455.12 345.018H399.123V349.2H455.12V345.018Z" fill="#29aee4"></path>
<path d="M536.847 106.151H469.12V114.005H536.847V106.151Z" fill="#29aee4"></path>
<path d="M514.349 118.478H469.12V126.331H514.349V118.478Z" fill="#29aee4"></path>
<path d="M72.8849 552.29L65.1306 551.065L139.656 420.889L146.21 424.642L72.8849 552.29Z" fill="#B5CDFB"></path>
<path d="M93.2881 552.29L85.5339 551.065L160.06 420.889L166.615 424.642L93.2881 552.29Z" fill="#B5CDFB"></path>
<path d="M469.12 165.839C468.524 165.839 468.041 165.357 468.041 164.76V81.8366C468.041 77.0639 464.158 73.1807 459.385 73.1807H113.957C109.184 73.1807 105.301 77.0639 105.301 81.8366V164.76C105.301 165.357 104.818 165.839 104.222 165.839C103.625 165.839 103.143 165.357 103.143 164.76V81.8366C103.143 75.8742 107.994 71.0225 113.957 71.0225H459.385C465.348 71.0225 470.199 75.8742 470.199 81.8366V164.76C470.199 165.357 469.717 165.839 469.12 165.839Z" fill="#29aee4"></path>
<path opacity="0.27" d="M104.222 212.298C103.625 212.298 103.143 211.815 103.143 211.219V164.761C103.143 164.164 103.625 163.682 104.222 163.682C104.818 163.682 105.301 164.164 105.301 164.761V211.219C105.301 211.815 104.818 212.298 104.222 212.298Z" fill="#29aee4"></path>
<path d="M459.385 371.039H113.957C107.994 371.039 103.143 366.187 103.143 360.225V211.218C103.143 210.621 103.625 210.139 104.222 210.139C104.818 210.139 105.301 210.621 105.301 211.218V360.225C105.301 364.997 109.184 368.88 113.957 368.88H459.385C464.158 368.88 468.041 364.997 468.041 360.225V211.23C468.041 210.634 468.524 210.151 469.12 210.151C469.717 210.151 470.199 210.634 470.199 211.23V360.225C470.199 366.187 465.348 371.039 459.385 371.039Z" fill="#29aee4"></path>
<path opacity="0.23" d="M469.12 212.31C468.524 212.31 468.041 211.828 468.041 211.231V164.761C468.041 164.164 468.524 163.682 469.12 163.682C469.717 163.682 470.2 164.164 470.2 164.761V211.231C470.2 211.828 469.717 212.31 469.12 212.31Z" fill="#29aee4"></path>
<path d="M788.705 553.156H11.2935C10.579 553.156 9.99945 552.576 9.99945 551.861C9.99945 551.147 10.579 550.567 11.2935 550.567H788.705C789.42 550.567 789.999 551.147 789.999 551.861C789.999 552.576 789.42 553.156 788.705 553.156Z" fill="#29aee4"></path>
<path opacity="0.05" d="M765.244 550.715C765.244 408.304 649.797 292.857 507.386 292.857C364.976 292.857 249.529 408.304 249.529 550.715" fill="#29aee4"></path>
<path opacity="0.66" d="M726.937 510.91C726.452 510.91 726.011 510.581 725.89 510.089C711.729 452.281 677.462 400.792 629.405 365.106C628.925 364.751 628.826 364.076 629.181 363.597C629.537 363.119 630.214 363.021 630.69 363.374C679.152 399.358 713.706 451.28 727.987 509.574C728.128 510.154 727.774 510.738 727.196 510.88C727.109 510.901 727.023 510.91 726.937 510.91Z" fill="#29aee4"></path>
<path d="M589.479 542.583C587.856 542.583 586.44 541.386 586.209 539.733L581.697 507.423C581.444 505.615 582.705 503.945 584.513 503.692C586.315 503.437 587.992 504.699 588.245 506.509L592.757 538.818C593.01 540.627 591.749 542.297 589.94 542.55C589.786 542.572 589.632 542.583 589.479 542.583Z" fill="#FF931E"></path>
<path d="M593.846 531.617C593.846 531.617 587.557 533.854 583.728 530.973C583.728 530.973 561.052 538.956 555.692 540.232C552.961 540.883 551.321 541.994 550.37 543.131C549.39 544.303 550.286 546.094 551.814 546.094H596.183C596.183 546.094 601.03 538.801 593.846 531.617Z" fill="#29aee4"></path>
<path d="M595.008 550.655H551.668C550.103 550.655 548.834 549.386 548.834 547.821C548.834 546.256 550.103 544.987 551.668 544.987H595.008C596.573 544.987 597.842 546.256 597.842 547.821C597.842 549.386 596.573 550.655 595.008 550.655Z" fill="#B5CDFB"></path>
<path d="M573.339 543.177C572.855 543.177 572.371 542.993 572.002 542.624L564.773 535.395C564.036 534.657 564.036 533.46 564.773 532.722C565.511 531.985 566.708 531.985 567.446 532.722L574.675 539.951C575.413 540.689 575.413 541.886 574.675 542.624C574.306 542.993 573.822 543.177 573.339 543.177Z" fill="#29aee4"></path>
<path d="M580.335 539.563C579.852 539.563 579.369 539.378 578.999 539.009L571.77 531.781C571.033 531.044 571.033 529.848 571.77 529.109C572.508 528.371 573.703 528.371 574.443 529.109L581.672 536.337C582.409 537.075 582.409 538.271 581.672 539.009C581.303 539.378 580.819 539.563 580.335 539.563Z" fill="#29aee4"></path>
<path d="M552.534 541.693C550.68 541.693 549.063 540.328 548.798 538.439L543.643 501.529C543.355 499.462 544.796 497.554 546.861 497.265C548.925 496.987 550.836 498.417 551.125 500.483L556.28 537.394C556.568 539.46 555.127 541.369 553.062 541.658C552.885 541.682 552.709 541.693 552.534 541.693Z" fill="#FF931E"></path>
<path d="M557.522 529.167C557.522 529.167 550.338 531.722 545.964 528.431C545.964 528.431 520.058 537.551 513.934 539.009C510.814 539.752 508.941 541.022 507.855 542.321C506.735 543.659 507.759 545.705 509.504 545.705H560.192C560.192 545.705 565.729 537.374 557.522 529.167Z" fill="#B5CDFB"></path>
<path d="M558.851 550.913H509.339C507.55 550.913 506.101 549.464 506.101 547.676C506.101 545.887 507.55 544.438 509.339 544.438H558.851C560.64 544.438 562.089 545.887 562.089 547.676C562.089 549.464 560.64 550.913 558.851 550.913Z" fill="#29aee4"></path>
<path d="M534.093 542.376C533.541 542.376 532.989 542.165 532.567 541.744L524.31 533.485C523.467 532.642 523.467 531.275 524.31 530.433C525.153 529.59 526.519 529.59 527.362 530.433L535.619 538.692C536.462 539.535 536.462 540.902 535.619 541.744C535.198 542.165 534.645 542.376 534.093 542.376Z" fill="#29aee4"></path>
<path d="M542.09 538.244C541.537 538.244 540.985 538.033 540.564 537.612L532.305 529.353C531.462 528.51 531.462 527.144 532.305 526.301C533.148 525.458 534.514 525.458 535.357 526.301L543.615 534.56C544.459 535.403 544.459 536.769 543.615 537.612C543.194 538.033 542.642 538.244 542.09 538.244Z" fill="#29aee4"></path>
<path d="M538.337 171.327C538.337 171.327 530.544 173.925 531.657 176.152C532.771 178.378 537.224 182.885 537.224 182.885L538.337 171.327Z" fill="#FF931E"></path>
<path d="M516.405 329.325C516.405 329.325 506.989 336.486 493.814 333.531C480.639 330.576 480.437 329.993 478.388 326.2C476.339 322.406 475.789 314.799 476.756 312.762C477.723 310.725 493.686 315.363 493.347 313.358C493.008 311.354 483.43 310.5 484.629 307.165C485.827 303.83 510.233 310.248 514.378 312.797C518.522 315.345 516.405 329.325 516.405 329.325Z" fill="#FF931E"></path>
<path d="M565.514 197.858H550.626V225.528H565.514V197.858Z" fill="#FF931E"></path>
<path d="M577.839 181.848C577.839 193.7 568.231 203.308 556.379 203.308C544.527 203.308 534.919 193.7 534.919 181.848C534.919 177.772 539.083 152.016 546.86 152.016C558.712 152.016 577.839 169.995 577.839 181.848Z" fill="#FF931E"></path>
<path d="M532.591 345.652C527.053 345.653 523.415 345.112 522.368 344.934L529.779 301.317C529.779 301.317 529.649 301.29 529.397 301.256C530.095 301.348 546.822 303.378 566.739 290.166C578.882 282.113 580.821 263.272 575.68 249.71C571.35 238.286 577.101 225.515 588.525 221.185C599.949 216.853 612.721 222.606 617.051 234.03C622.81 249.223 624.101 266.401 620.686 282.399C616.666 301.236 606.192 317.089 591.193 327.036C567.274 342.901 545.092 345.652 532.591 345.652Z" fill="#29aee4"></path>
<path d="M522.368 344.934L529.779 301.317C517.847 302.084 512.514 310.264 511.454 322.457C510.606 332.212 518.377 341.506 522.368 344.934Z" fill="#29aee4"></path>
<path d="M457.518 94.7675H115.827C113.196 94.7675 111.063 92.6347 111.063 90.0038V83.4599C111.063 80.829 113.196 78.6963 115.827 78.6963H457.518C460.149 78.6963 462.282 80.829 462.282 83.4599V90.0038C462.282 92.6347 460.149 94.7675 457.518 94.7675Z" fill="#29aee4"></path>
<path d="M578.417 371.012H539.804L533.83 308.603H609.983V343.438C609.983 358.667 595.851 371.012 578.417 371.012Z" fill="#B5CDFB"></path>
<path d="M506.312 405.132H67.0297C63.8374 405.132 61.2496 402.545 61.2496 399.352C61.2496 396.16 63.8374 393.572 67.0297 393.572H506.312C509.504 393.572 512.092 396.16 512.092 399.352C512.092 402.545 509.504 405.132 506.312 405.132Z" fill="#29aee4"></path>
<path d="M531.738 430.559H92.4558C89.2636 430.559 86.6758 427.971 86.6758 424.779C86.6758 421.587 89.2636 418.999 92.4558 418.999H531.738C534.93 418.999 537.518 421.587 537.518 424.779C537.518 427.971 534.93 430.559 531.738 430.559Z" fill="#29aee4"></path>
<path d="M520.657 212.298H85.1781V163.682H520.657V212.298ZM87.3363 210.14H518.499V165.84H87.3363V210.14Z" fill="#29aee4"></path>
<path d="M543.287 519.268L524.527 430.344L524.268 429.12L524.715 425.789C525.529 419.718 526.476 413.675 527.416 407.629C528.388 401.591 529.371 395.554 530.414 389.53C531.42 383.498 532.534 377.488 533.595 371.468L536.942 353.439L536.608 356.778C536.608 355.709 536.586 354.639 536.604 353.57C536.658 352.501 536.659 351.431 536.77 350.362C536.843 349.293 536.976 348.223 537.122 347.154C537.301 346.085 537.472 345.016 537.778 343.946H569.072C569.379 345.016 569.549 346.085 569.728 347.154C569.874 348.223 570.008 349.293 570.08 350.362C570.192 351.431 570.192 352.501 570.246 353.57C570.265 354.639 570.242 355.709 570.243 356.778V358.592L569.908 360.117L565.975 378.027C564.609 383.986 563.297 389.956 561.875 395.904C560.492 401.859 559.048 407.802 557.593 413.743C556.105 419.677 554.626 425.613 553.013 431.522L553.201 426.968L555.609 517.817L543.287 519.268Z" fill="#B5CDFB"></path>
<path d="M580.154 525.346C579.354 518.34 578.676 511.33 577.959 504.322L575.993 483.293L574.218 462.261C573.642 455.25 573.014 448.24 572.53 441.227L572.529 441.214L572.556 440.171L573.844 390.559L574.45 365.83L574.7 353.579L574.743 347.611C574.746 346.648 574.743 345.688 574.724 344.841C574.715 344.421 574.702 344.007 574.684 343.735C574.677 343.543 574.665 343.56 574.661 343.478C574.661 343.543 574.665 343.637 574.673 343.715L574.73 344.207C574.762 344.435 574.802 344.662 574.85 344.886L605.515 338.645C605.582 338.997 605.64 339.352 605.691 339.708C605.74 340.048 605.791 340.498 605.795 340.585L605.868 341.597C605.885 342.032 605.907 342.566 605.906 342.891C605.917 343.654 605.909 344.276 605.898 344.891C605.876 346.115 605.834 347.225 605.789 348.333C605.695 350.537 605.56 352.665 605.427 354.784L604.536 367.357C603.889 375.688 603.121 383.97 602.376 392.251L601.228 404.662L599.968 417.058L597.384 441.843L597.41 440.787C597.175 447.812 596.796 454.84 596.468 461.867L595.438 482.949L594.218 504.034C593.749 511.064 593.32 518.093 592.768 525.123L580.154 525.346Z" fill="#B5CDFB"></path>
<path d="M590.185 330.014L547.596 328.517C533.532 328.023 522.623 316.065 523.419 302.016L526.689 265.823L521.215 234.603C519.754 226.272 525.324 218.334 533.656 216.873L561.58 211.977C588.309 207.291 613.776 225.159 618.463 251.888L618.463 251.888C619.449 257.512 619.709 263.239 619.236 268.929L616.125 306.349C615.353 319.979 603.828 330.493 590.185 330.014Z" fill="#29aee4"></path>
<path d="M586.759 171.367C581.804 188.863 573.714 177.109 561.449 177.109C553.428 177.109 541.411 169.721 535.042 158.464C528.674 147.207 536.243 138.07 540.553 139.002C549.395 140.914 557.645 146.704 564.551 146.704C576.817 146.704 590.471 158.262 586.759 171.367Z" fill="#29aee4"></path>
<path d="M583.514 189.363C583.514 199.144 578.238 201.009 568.414 201.009C558.59 201.009 548.207 190.753 548.207 180.972C548.207 171.191 558.59 165.589 568.414 165.589C573.326 165.589 579.536 163.723 583.83 165.589C593.949 169.985 583.514 184.472 583.514 189.363Z" fill="#29aee4"></path>
<path d="M551.399 178.742C552.258 174.729 550.696 170.992 547.91 170.396C545.125 169.8 542.17 172.57 541.311 176.583C540.452 180.596 542.014 184.333 544.8 184.929C547.585 185.525 550.54 182.755 551.399 178.742Z" fill="#FF931E"></path>
<path d="M545.872 185.861C543.767 185.861 542.263 183.995 542.195 183.909C542.009 183.676 542.049 183.337 542.282 183.152C542.515 182.968 542.854 183.005 543.04 183.237C543.054 183.255 544.521 185.056 546.29 184.746C547.994 184.454 549.585 182.317 550.891 178.566C550.99 178.284 551.302 178.136 551.578 178.233C551.859 178.331 552.009 178.638 551.911 178.92C550.445 183.13 548.613 185.449 546.465 185.812C546.263 185.845 546.064 185.861 545.872 185.861Z" fill="#333333"></path>
<path d="M544.513 181.863C544.063 181.863 543.626 181.638 543.326 181.248C543.004 180.827 542.908 180.304 543.069 179.844C543.278 179.251 543.795 178.916 544.211 178.646C544.517 178.449 544.816 178.229 544.865 177.99C544.874 177.945 544.818 177.844 544.774 177.822C544.507 177.96 544.232 177.852 544.095 177.587C543.958 177.322 544.109 176.993 544.374 176.856C544.713 176.682 545.108 176.722 545.434 176.968C545.819 177.258 546.015 177.757 545.923 178.206C545.776 178.921 545.127 179.339 544.814 179.541C544.491 179.75 544.174 179.956 544.087 180.201C544.048 180.314 544.084 180.463 544.182 180.591C544.28 180.718 544.395 180.812 544.533 180.783C544.82 180.757 545.088 180.984 545.111 181.282C545.134 181.579 544.91 181.837 544.613 181.86C544.58 181.862 544.547 181.863 544.513 181.863Z" fill="#333333"></path>
<path d="M615.055 346.79L614.17 346.719C614.42 343.646 614.653 338.442 614.215 337.56C613.483 336.964 605.468 337.186 598.007 337.773V341.765H597.119V336.953L597.527 336.92C603.761 336.418 614.324 335.781 615.01 337.166C615.686 338.527 615.166 345.423 615.055 346.79Z" fill="#333333"></path>
<path d="M557.349 346.819C557.182 345.437 556.408 338.465 557.449 337.044C558.44 335.689 573.94 336.325 583.091 336.825L583.601 336.852V341.765H582.522V337.874C571.48 337.284 559.359 337.041 558.263 337.74C557.792 338.401 557.957 342.827 558.419 346.691L557.349 346.819Z" fill="#333333"></path>
<path d="M583.749 516.336C583.471 516.336 583.235 516.123 583.212 515.841L576.98 441.06L579.854 374.599C579.866 374.301 580.112 374.068 580.416 374.083C580.715 374.096 580.945 374.348 580.933 374.645L578.057 441.038L584.287 515.751C584.312 516.048 584.091 516.309 583.795 516.334C583.779 516.335 583.764 516.336 583.749 516.336Z" fill="#333333"></path>
<path d="M549.339 512.772C549.09 512.772 548.867 512.599 548.812 512.346L531.187 430.562L545.616 361.233L545.837 348.406C543.552 347.854 541.869 346.694 540.829 344.954C539.06 341.99 539.134 337.485 541.054 331.181C541.14 330.896 541.437 330.735 541.727 330.821C542.013 330.909 542.173 331.21 542.086 331.495C540.284 337.408 540.174 341.75 541.755 344.399C542.711 346 544.26 346.997 546.49 347.445L546.932 347.533L546.683 361.352L532.289 430.557L549.868 512.119C549.93 512.41 549.744 512.697 549.454 512.759C549.416 512.768 549.377 512.772 549.339 512.772Z" fill="#333333"></path>
<path opacity="0.66" d="M737.143 93.584H634.569C633.973 93.584 633.49 93.1013 633.49 92.5049C633.49 91.9084 633.973 91.4258 634.569 91.4258H737.143C737.74 91.4258 738.222 91.9084 738.222 92.5049C738.222 93.1013 737.74 93.584 737.143 93.584Z" fill="#29aee4"></path>
<path opacity="0.66" d="M737.143 101.512H634.569C633.973 101.512 633.49 101.029 633.49 100.433C633.49 99.8362 633.973 99.3535 634.569 99.3535H737.143C737.74 99.3535 738.222 99.8362 738.222 100.433C738.222 101.029 737.74 101.512 737.143 101.512Z" fill="#29aee4"></path>
<path opacity="0.66" d="M669.252 147.454H633.49V111.693H669.252V147.454ZM635.648 145.296H667.094V113.852H635.648V145.296Z" fill="#29aee4"></path>
<path opacity="0.66" d="M738.222 147.454H677.413V111.693H738.222V147.454ZM679.571 145.296H736.064V113.852H679.571V145.296Z" fill="#29aee4"></path>
<path opacity="0.17" d="M663.34 118.414H629.737V152.017H663.34V118.414Z" fill="#29aee4"></path>
<path opacity="0.17" d="M732.311 118.414H673.66V152.017H732.311V118.414Z" fill="#29aee4"></path>
<path opacity="0.17" d="M757.288 256.105H648.683V289.708H757.288V256.105Z" fill="#29aee4"></path>
<path opacity="0.66" d="M738.222 309.681H633.49V177.664H738.222V241.871C738.222 242.468 737.74 242.95 737.143 242.95C736.547 242.95 736.064 242.468 736.064 241.871V179.822H635.648V307.523H736.064V292.856C736.064 292.26 736.547 291.777 737.143 291.777C737.74 291.777 738.222 292.26 738.222 292.856V309.681Z" fill="#29aee4"></path>
<path opacity="0.17" d="M650.436 201.779C652.602 201.779 654.357 200.023 654.357 197.857C654.357 195.691 652.602 193.936 650.436 193.936C648.27 193.936 646.514 195.691 646.514 197.857C646.514 200.023 648.27 201.779 650.436 201.779Z" fill="#29aee4"></path>
<path opacity="0.17" d="M650.436 219.535C652.602 219.535 654.357 217.779 654.357 215.613C654.357 213.447 652.602 211.691 650.436 211.691C648.27 211.691 646.514 213.447 646.514 215.613C646.514 217.779 648.27 219.535 650.436 219.535Z" fill="#29aee4"></path>
<path opacity="0.17" d="M650.436 237.293C652.602 237.293 654.357 235.537 654.357 233.371C654.357 231.205 652.602 229.449 650.436 229.449C648.27 229.449 646.514 231.205 646.514 233.371C646.514 235.537 648.27 237.293 650.436 237.293Z" fill="#29aee4"></path>
<path opacity="0.17" d="M695.73 193.936H660.014V201.779H695.73V193.936Z" fill="#29aee4"></path>
<path opacity="0.17" d="M695.73 211.691H660.014V219.535H695.73V211.691Z" fill="#29aee4"></path>
<path opacity="0.17" d="M695.73 229.449H660.014V237.293H695.73V229.449Z" fill="#29aee4"></path>
<path opacity="0.17" d="M725.201 194.576H701.391V195.856H725.201V194.576Z" fill="#29aee4"></path>
<path opacity="0.17" d="M725.201 197.472H701.391V198.751H725.201V197.472Z" fill="#29aee4"></path>
<path opacity="0.17" d="M725.201 200.37H701.391V201.65H725.201V200.37Z" fill="#29aee4"></path>
<path opacity="0.17" d="M725.201 212.078H701.391V213.358H725.201V212.078Z" fill="#29aee4"></path>
<path opacity="0.17" d="M725.201 214.974H701.391V216.253H725.201V214.974Z" fill="#29aee4"></path>
<path opacity="0.17" d="M725.201 217.871H701.391V219.151H725.201V217.871Z" fill="#29aee4"></path>
<path opacity="0.17" d="M725.201 229.579H701.391V230.859H725.201V229.579Z" fill="#29aee4"></path>
<path opacity="0.17" d="M725.201 232.478H701.391V233.757H725.201V232.478Z" fill="#29aee4"></path>
<path opacity="0.17" d="M725.201 235.373H701.391V236.653H725.201V235.373Z" fill="#29aee4"></path>
<path opacity="0.66" d="M766.323 283.056H653.278V249.787H766.323V283.056ZM655.436 280.897H764.165V251.945H655.436V280.897Z" fill="#29aee4"></path>
<path opacity="0.38" d="M100.453 401.664C102.043 401.664 103.332 400.375 103.332 398.785C103.332 397.195 102.043 395.906 100.453 395.906C98.8634 395.906 97.5746 397.195 97.5746 398.785C97.5746 400.375 98.8634 401.664 100.453 401.664Z" fill="#F2F2F2"></path>
<path opacity="0.38" d="M108.546 401.664C110.136 401.664 111.425 400.375 111.425 398.785C111.425 397.195 110.136 395.906 108.546 395.906C106.956 395.906 105.667 397.195 105.667 398.785C105.667 400.375 106.956 401.664 108.546 401.664Z" fill="black"></path>
<path opacity="0.38" d="M117.192 401.664C118.782 401.664 120.07 400.375 120.07 398.785C120.07 397.195 118.782 395.906 117.192 395.906C115.602 395.906 114.313 397.195 114.313 398.785C114.313 400.375 115.602 401.664 117.192 401.664Z" fill="#B3B3B3"></path>
<path d="M275.328 379.211C274.732 379.211 274.249 378.728 274.249 378.132V361.785C274.249 361.189 274.732 360.706 275.328 360.706C275.925 360.706 276.408 361.189 276.408 361.785V378.132C276.408 378.728 275.925 379.211 275.328 379.211Z" fill="#29aee4"></path>
<path d="M286.671 375.245C286.075 375.245 285.592 374.763 285.592 374.166V361.785C285.592 361.189 286.075 360.706 286.671 360.706C287.268 360.706 287.75 361.189 287.75 361.785V374.166C287.75 374.763 287.268 375.245 286.671 375.245Z" fill="#29aee4"></path>
<path d="M298.014 379.211C297.417 379.211 296.935 378.728 296.935 378.132V361.785C296.935 361.189 297.417 360.706 298.014 360.706C298.61 360.706 299.093 361.189 299.093 361.785V378.132C299.093 378.728 298.61 379.211 298.014 379.211Z" fill="#29aee4"></path>
<path d="M471.469 454.462C470.873 454.462 470.39 453.979 470.39 453.383V437.036C470.39 436.44 470.873 435.957 471.469 435.957C472.066 435.957 472.548 436.44 472.548 437.036V453.383C472.548 453.979 472.066 454.462 471.469 454.462Z" fill="#29aee4"></path>
<path d="M482.812 450.495C482.215 450.495 481.733 450.013 481.733 449.416V437.036C481.733 436.44 482.215 435.957 482.812 435.957C483.408 435.957 483.891 436.44 483.891 437.036V449.416C483.891 450.013 483.408 450.495 482.812 450.495Z" fill="#29aee4"></path>
<path d="M494.155 454.462C493.558 454.462 493.075 453.979 493.075 453.383V437.036C493.075 436.44 493.558 435.957 494.155 435.957C494.751 435.957 495.234 436.44 495.234 437.036V453.383C495.234 453.979 494.751 454.462 494.155 454.462Z" fill="#29aee4"></path>
<path d="M36.987 70.6631H20.6404C20.0439 70.6631 19.5613 70.1804 19.5613 69.584C19.5613 68.9875 20.0439 68.5049 20.6404 68.5049H36.987C37.5834 68.5049 38.0661 68.9875 38.0661 69.584C38.0661 70.1804 37.5834 70.6631 36.987 70.6631Z" fill="#29aee4"></path>
<path d="M33.0205 59.3223H20.6404C20.0439 59.3223 19.5613 58.8396 19.5613 58.2432C19.5613 57.6467 20.0439 57.1641 20.6404 57.1641H33.0205C33.6169 57.1641 34.0996 57.6467 34.0996 58.2432C34.0996 58.8396 33.6169 59.3223 33.0205 59.3223Z" fill="#29aee4"></path>
<path d="M36.987 47.9795H20.6404C20.0439 47.9795 19.5613 47.4968 19.5613 46.9004C19.5613 46.3039 20.0439 45.8213 20.6404 45.8213H36.987C37.5834 45.8213 38.0661 46.3039 38.0661 46.9004C38.0661 47.4968 37.5834 47.9795 36.987 47.9795Z" fill="#29aee4"></path>
<path opacity="0.66" d="M713.858 75.6688C713.262 75.6688 712.779 75.1862 712.779 74.5898V58.2432C712.779 57.6467 713.262 57.1641 713.858 57.1641C714.455 57.1641 714.938 57.6467 714.938 58.2432V74.5898C714.938 75.1862 714.455 75.6688 713.858 75.6688Z" fill="#29aee4"></path>
<path opacity="0.66" d="M725.201 71.7015C724.605 71.7015 724.122 71.2189 724.122 70.6224V49.8066C724.122 49.2102 724.605 48.7275 725.201 48.7275C725.797 48.7275 726.28 49.2102 726.28 49.8066V70.6224C726.28 71.2189 725.797 71.7015 725.201 71.7015Z" fill="#29aee4"></path>
<path opacity="0.66" d="M736.544 75.6688C735.947 75.6688 735.465 75.1862 735.465 74.5898V58.2432C735.465 57.6467 735.947 57.1641 736.544 57.1641C737.14 57.1641 737.623 57.6467 737.623 58.2432V74.5898C737.623 75.1862 737.14 75.6688 736.544 75.6688Z" fill="#29aee4"></path>
<path d="M734.496 327.283C736.571 327.283 738.254 325.601 738.254 323.525C738.254 321.45 736.571 319.768 734.496 319.768C732.421 319.768 730.738 321.45 730.738 323.525C730.738 325.601 732.421 327.283 734.496 327.283Z" fill="#B5CDFB"></path>
<path d="M734.496 345.969C736.571 345.969 738.254 344.286 738.254 342.211C738.254 340.136 736.571 338.453 734.496 338.453C732.421 338.453 730.738 340.136 730.738 342.211C730.738 344.286 732.421 345.969 734.496 345.969Z" fill="#29aee4"></path>
<path opacity="0.66" d="M734.497 398.241C725.056 398.241 717.376 390.56 717.376 381.119C717.376 371.678 725.056 363.998 734.497 363.998C743.938 363.998 751.618 371.678 751.618 381.119C751.618 390.56 743.938 398.241 734.497 398.241ZM734.497 366.156C726.247 366.156 719.534 372.869 719.534 381.119C719.534 389.37 726.247 396.083 734.497 396.083C742.747 396.083 749.46 389.37 749.46 381.119C749.46 372.869 742.747 366.156 734.497 366.156Z" fill="#29aee4"></path>
<path opacity="0.17" d="M734.496 389.508C739.13 389.508 742.886 385.752 742.886 381.118C742.886 376.484 739.13 372.728 734.496 372.728C729.862 372.728 726.105 376.484 726.105 381.118C726.105 385.752 729.862 389.508 734.496 389.508Z" fill="#B5CDFB"></path>
<path opacity="0.66" d="M734.953 386.663L730.171 381.881C729.749 381.459 729.749 380.776 730.171 380.355C730.592 379.933 731.275 379.933 731.697 380.355L734.953 383.611L743.812 374.752C744.234 374.33 744.917 374.33 745.338 374.752C745.76 375.173 745.76 375.856 745.338 376.278L734.953 386.663Z" fill="#29aee4"></path>
<path d="M427.861 488.934H220.752C220.156 488.934 219.673 488.451 219.673 487.854C219.673 487.258 220.156 486.775 220.752 486.775H427.861C428.458 486.775 428.94 487.258 428.94 487.854C428.94 488.451 428.458 488.934 427.861 488.934Z" fill="#29aee4"></path>
<path d="M147.253 308.603H119.577V336.279H147.253V308.603Z" fill="#29aee4"></path>
<path d="M453.767 308.603H426.091V336.279H453.767V308.603Z" fill="#29aee4"></path>
<path opacity="0.17" d="M439.929 308.603H130.791V336.279H439.929V308.603Z" fill="#29aee4"></path>
<path opacity="0.1" d="M519.578 164.76H86.2569V211.217H519.578V164.76Z" fill="#29aee4"></path>
<path d="M427.862 238.454C427.862 238.454 416.007 230.761 414.006 214.755C412.006 198.75 418.378 194.306 421.815 190.47C425.251 186.633 425.181 181.474 427.862 181.738C430.543 182.003 434.379 207.271 436.496 206.08C438.613 204.889 435.702 193.777 439.936 193.777C444.169 193.777 446.815 223.807 445.624 229.496C444.433 235.184 427.862 238.454 427.862 238.454Z" fill="#FF931E"></path>
<path d="M554.84 248.122C554.02 249.816 546.455 265.086 534.52 279.254C516.845 300.242 500.173 306.005 487.191 306.005C479.951 306.005 473.865 304.213 469.386 302.26C432.014 285.959 422.306 249.134 422.306 244.528C422.306 232.248 432.255 222.288 444.535 222.288C454.193 222.288 462.415 228.45 465.48 237.061L465.566 237.126C467.833 242.856 473.444 255.784 487.019 261.686C487.137 261.74 487.191 261.751 487.191 261.751C491.778 261.654 505.892 247.442 515.065 228.752C520.438 217.8 533.668 213.246 544.632 218.598C555.595 223.95 560.171 237.148 554.84 248.122Z" fill="#29aee4"></path>
<path d="M514.908 298.296C514.626 298.296 514.343 298.185 514.131 297.966C513.717 297.536 513.73 296.853 514.159 296.44C524.265 286.699 543.167 266.747 549.912 253.754C551.931 249.865 555.414 238.634 552.617 230.59C551.385 227.048 549.059 224.488 545.701 222.978C545.157 222.733 544.915 222.094 545.16 221.551C545.405 221.009 546.046 220.767 546.586 221.009C550.507 222.772 553.221 225.756 554.655 229.881C557.711 238.668 554.069 250.429 551.828 254.749C544.954 267.989 525.857 288.162 515.657 297.994C515.448 298.196 515.178 298.296 514.908 298.296Z" fill="#29aee4"></path>
</svg>